<svg width="165" height="137" viewBox="0 0 165 137" fill="none" xmlns="http://www.w3.org/2000/svg">
<path d="M111.401 1.40783C108.961 2.00362 107.228 2.96824 105.399 4.78399L103.794 6.34439L102.478 5.9472C100.489 5.32304 94.2944 4.15982 90.8604 3.76263C87.0733 3.33706 78.1832 3.33706 74.3319 3.76263C67.881 4.50027 60.8524 6.20254 55.0755 8.44385L51.8661 9.6638L50.9033 8.95453C49.5874 7.98991 48.1111 7.47923 46.6668 7.47923C44.324 7.50761 41.596 9.12476 40.8257 10.9689C40.4085 11.9619 40.3764 14.4301 40.7615 15.0827C40.9862 15.4799 40.5369 15.9338 38.3224 17.551C33.412 21.1257 26.4797 28.0766 24.0405 31.9351C23.4628 32.8146 23.2382 32.9848 22.6926 32.8146C22.3074 32.6727 20.9274 32.5876 19.6115 32.5876C16.9477 32.616 15.4393 33.1267 13.3532 34.7722C10.6252 36.8716 9.5661 40.9287 10.9141 44.1063C11.6201 45.7234 13.9951 48.1633 15.2147 48.5038C15.664 48.6172 15.7603 48.8442 15.6319 49.2698C12.8397 58.1783 12.9039 71.002 15.7603 79.9389C16.4663 82.1802 16.9798 82.8044 17.9427 82.549C18.8734 82.2653 18.9055 81.7263 18.071 78.8324C16.5947 73.6405 16.2738 71.2006 16.2738 64.6469C16.2417 58.4336 16.6268 55.0575 17.7822 51.0288L18.1994 49.6386L20.1892 49.5535C22.9814 49.44 25.0675 48.5889 26.9932 46.7164C30.4914 43.3119 30.4272 38.5455 26.7685 34.9708L25.6131 33.8359L27.4104 31.5095C31.0691 26.7432 36.6214 21.4094 40.9862 18.5156L42.5909 17.4091L43.8747 18.0049C45.7682 18.8844 48.6888 18.6574 50.3256 17.5226C51.8982 16.4161 52.9894 14.5153 52.9894 12.9265V11.7065L55.4285 10.6852C58.991 9.23824 64.9284 7.59272 69.4536 6.76996C79.5632 4.98258 89.6729 5.2663 99.943 7.67783C102.831 8.35873 103.056 8.47222 102.864 9.01127C102.382 10.3163 102.639 13.579 103.377 15.2245C104.34 17.4942 106.939 19.9341 109.539 20.9839C111.304 21.6931 111.946 21.8066 114.449 21.8066C116.889 21.8066 117.627 21.6931 119.135 21.069C120.13 20.6434 121.542 19.849 122.28 19.2532L123.596 18.2035L124.816 18.9979C127.191 20.5867 132.005 24.9274 134.572 27.8213C136.819 30.3179 137.365 30.7435 138.039 30.6867C138.648 30.63 138.873 30.403 138.937 29.864C139.001 29.2682 138.456 28.4738 136.498 26.3176C133.963 23.5372 128.378 18.5439 126.132 17.0403L124.976 16.2743L125.618 14.6287C126.068 13.4088 126.196 12.5009 126.1 10.8838C125.779 6.20254 122.441 2.57104 117.338 1.37946C115.027 0.868782 113.711 0.868782 111.401 1.40783ZM118.622 4.21657C120.644 5.0677 121.799 6.17416 122.89 8.27362C124.399 11.1958 123.436 15.3948 120.772 17.4375C118.718 19.0546 117.242 19.5369 114.449 19.5369C112.299 19.5369 111.625 19.3951 110.245 18.7709C105.174 16.4161 103.602 10.7135 106.907 6.59973C109.443 3.47892 114.546 2.42919 118.622 4.21657ZM48.4962 10.1745C50.8712 11.2526 50.9995 14.4301 48.753 15.8203C47.5976 16.5296 45.5115 16.3877 44.3561 15.5366C40.8899 12.9832 44.4844 8.33037 48.4962 10.1745ZM23.0456 35.4247C26.608 37.0135 27.956 40.6166 26.1266 43.8225C24.8429 46.0355 23.1419 47.0001 20.2855 47.142C17.7501 47.2838 16.3059 46.7731 14.5086 45.1276C11.909 42.7161 12.2941 38.3186 15.2788 36.2191C17.6217 34.5736 20.4139 34.2899 23.0456 35.4247Z" fill="white" stroke="#3A385F" stroke-width="0.742287"/>
<path d="M112.684 6.08909C109.988 6.79836 108.19 8.92619 108.19 11.4512C108.19 14.1181 110.02 16.1608 113.069 16.8701C116.824 17.778 120.707 14.9976 120.707 11.3945C120.707 7.90483 116.471 5.0961 112.684 6.08909ZM117.113 9.35176C118.3 10.4582 118.493 11.8484 117.594 13.1818C117.048 14.0046 115.444 14.8557 114.481 14.8557C113.358 14.8557 111.753 14.0046 111.271 13.1818C109.731 10.5717 111.913 7.76298 115.091 8.21691C115.636 8.30203 116.535 8.81271 117.113 9.35176Z" fill="white" stroke="#3A385F" stroke-width="0.742287"/>
<path d="M27.4099 11.4229C23.5586 14.487 22.4995 15.5367 22.4995 16.246C22.4995 16.8134 23.1093 17.4092 23.687 17.4092C23.9437 17.4092 25.6126 16.1609 27.4099 14.6288C29.1751 13.1252 31.1328 11.4513 31.7426 10.9406C32.7696 10.0895 32.8017 9.97597 32.3524 9.38018C32.0956 9.03972 31.6784 8.72764 31.4217 8.6709C31.1649 8.64253 29.3676 9.86248 27.4099 11.4229Z" fill="white" stroke="#3A385F" stroke-width="0.742287"/>
<path d="M134.893 10.6569C134.155 11.3094 134.54 11.9903 136.53 13.5507C138.872 15.3665 143.109 19.5938 145.516 22.4876C146.447 23.5941 147.409 24.5587 147.698 24.6438C148.565 24.8991 149.271 24.4736 149.271 23.7359C149.271 22.0053 137.589 10.3164 135.823 10.3164C135.535 10.3164 135.117 10.4583 134.893 10.6569Z" fill="white" stroke="#3A385F" stroke-width="0.742287"/>
<path d="M17.5893 20.8704C16.9794 21.5513 15.6313 23.2252 14.6042 24.587C12.6141 27.2823 12.5178 27.9632 14.219 28.1334C14.8931 28.2185 15.2461 27.9064 16.53 26.1474C17.3967 25.0126 18.6485 23.4238 19.3225 22.6294C20.6385 21.0974 20.8311 20.5867 20.1892 20.0193C19.483 19.3951 18.7127 19.6505 17.5893 20.8704Z" fill="white" stroke="#3A385F" stroke-width="0.742287"/>
<path d="M74.9734 22.0901C68.2015 23.0548 60.9483 25.6365 55.1713 29.0694C51.1275 31.481 45.0296 36.8998 42.43 40.3611C39.1243 44.7586 36.621 49.8087 35.3372 54.4899C34.9842 55.8517 34.8558 55.9935 34.0855 55.9935C31.3896 55.9935 27.9235 58.093 26.4151 60.6464C25.2276 62.6607 25.1634 65.9801 26.3188 68.0229C27.7309 70.5195 30.1059 72.1367 33.3795 72.7608C34.92 73.0445 35.0163 73.1297 35.3372 74.2361C36.1396 77.1867 37.7763 81.0735 39.4131 83.8539C45.9924 95.2591 57.6747 103.26 72.2133 106.267C75.4869 106.948 85.6928 107.288 88.7738 106.834C90.4106 106.579 90.7636 106.607 91.0204 106.976C92.4325 108.906 93.9089 110.211 95.4815 110.892C100.328 112.991 105.784 111.459 108.351 107.317C109.154 106.012 109.314 105.473 109.314 103.657C109.314 102.494 109.186 101.245 109.057 100.933C108.833 100.394 109.121 100.139 110.983 98.9473C114.192 96.9613 119.937 91.7127 122.248 88.7054C126.003 83.7972 128.667 78.3499 129.886 72.9594C130.368 70.9167 130.4 70.4344 130.047 70.0656C129.533 69.5265 128.603 69.4698 128.185 69.9521C127.993 70.1507 127.672 71.1437 127.479 72.165C125.457 81.4991 119.199 90.4644 110.63 96.3372L107.773 98.2948L106.458 97.1599C102.574 93.8121 96.348 93.8973 92.7535 97.3301C91.1167 98.9189 90.4748 100.196 90.2501 102.522L90.0576 104.366L88.2924 104.593C85.2756 104.99 75.6473 104.622 72.5663 103.997C64.1577 102.238 56.8081 98.7487 50.8386 93.6419C45.2543 88.8756 41.3709 83.4567 39.0601 77.2151C37.327 72.5622 37.327 72.8459 39.0922 72.165C41.0499 71.399 42.8472 69.867 43.9384 68.0512C45.0938 66.122 45.1259 63.0863 44.0347 60.8734C43.1361 59.086 40.6327 56.9865 38.8355 56.5042C37.6159 56.1921 37.5838 56.1354 37.7443 55.3126C38.1936 53.3834 40.1834 48.5603 41.403 46.4325C48.0464 34.7436 60.3706 26.6579 74.9734 24.4449C80.1726 23.6506 87.4579 23.8492 92.4967 24.8705C100.841 26.6011 108.383 30.2326 114.353 35.3678L116.471 37.2119L115.701 38.5737C114.224 41.1271 115.059 43.9359 117.787 45.6381C118.974 46.3758 119.424 46.4892 121.446 46.5176H123.692L124.944 49.298C126.741 53.1848 127.736 56.9582 128.153 61.2422C128.41 63.9091 128.635 65.0155 129.02 65.2709C129.662 65.7532 129.854 65.7248 130.528 65.1574C130.977 64.7318 131.042 64.3063 130.849 61.9798C130.4 56.8447 128.891 51.3974 126.645 46.9715L125.778 45.2693L126.645 43.9359C128.378 41.3541 127.479 37.9212 124.655 36.3608C123.66 35.8217 122.986 35.7082 120.996 35.7082H118.557L115.701 33.3251C109.218 27.963 101.451 24.3598 92.3041 22.4873C88.4529 21.7213 79.1777 21.4944 74.9734 22.0901ZM123.853 38.6588C126.131 40.6732 124.912 43.9075 121.734 44.2763C118.685 44.6451 116.567 41.9782 117.979 39.5383C118.685 38.3468 119.68 37.8361 121.381 37.8361C122.633 37.8361 123.082 37.9779 123.853 38.6588ZM38.4182 58.8023C41.6276 60.1073 43.2644 63.7956 41.8844 66.7178C39.8625 71.0302 33.2832 71.9097 29.9454 68.3066C26.2225 64.3346 29.4961 58.2632 35.3051 58.2632C36.3642 58.2632 37.648 58.4902 38.4182 58.8023ZM101.868 97.1599C104.628 97.8125 106.65 100.366 106.618 103.118C106.586 108.423 99.8142 111.204 95.1605 107.827C91.9832 105.501 91.9832 100.621 95.1605 98.3799C97.1824 96.933 99.3969 96.5358 101.868 97.1599Z" fill="white" stroke="#3A385F" stroke-width="0.742287"/>
<path d="M152.898 30.6584C152.192 30.8854 152.449 32.1053 153.604 34.148C155.562 37.6093 157.263 41.6096 159.092 47.2555C159.285 47.8229 160.183 48.135 160.954 47.8796C161.274 47.7661 161.467 47.3689 161.467 46.8015C161.467 45.4113 158.45 37.8646 156.364 34.0062C154.438 30.4598 154.182 30.1761 152.898 30.6584Z" fill="white" stroke="#3A385F" stroke-width="0.742287"/>
<path d="M140.83 34.3465C140.349 34.7437 140.67 35.7934 142.178 38.5171C146.607 46.6312 148.95 55.5113 148.95 64.3063C148.95 70.2642 148.212 74.9455 146.351 80.7048L145.356 83.7405L143.655 83.854C140.092 84.1093 137.846 86.5208 138.102 89.7551C138.199 91.117 138.423 91.656 139.258 92.5639L140.253 93.6703L138.873 95.6563C134.219 102.295 127.126 108.707 119.263 113.36C110.887 118.296 98.5946 122.183 89.512 122.807C88.0357 122.893 86.5273 123.034 86.11 123.119C85.6286 123.205 85.3398 123.091 85.2114 122.751C85.1151 122.467 84.6016 121.446 84.056 120.453C81.1034 114.92 72.6305 113.899 67.8164 118.523C67.0783 119.233 66.308 120.141 66.1475 120.538C65.9871 120.935 65.7303 121.247 65.5698 121.247C64.8638 121.247 58.0598 119.119 55.4281 118.069C51.4164 116.452 46.0887 113.7 46.1529 113.246C46.185 113.048 46.3776 112.31 46.6023 111.601C47.9502 106.948 41.3067 103.033 36.9419 105.898L36.0754 106.466L34.4707 104.99C30.2022 101.075 26.4472 96.4223 23.302 91.1737C21.6652 88.3933 21.2479 87.911 20.6061 87.911C19.0335 87.911 19.0335 88.7054 20.5419 91.3723C23.4303 96.5358 27.3137 101.557 31.5822 105.529L34.3744 108.14L34.1819 109.672C33.8288 112.424 35.594 114.92 38.5145 115.8C39.9909 116.254 40.9858 116.225 42.7189 115.686L44.1631 115.261L47.6614 117.105C51.8978 119.346 56.3268 121.105 61.3655 122.524L65.0884 123.573L65.2489 125.474C65.5057 128.595 67.335 130.95 70.737 132.51C72.1812 133.191 72.791 133.305 75.1339 133.305C78.3433 133.305 80.2047 132.652 82.2908 130.808C83.6067 129.645 85.083 127.205 85.083 126.155C85.083 125.616 85.3077 125.531 86.9445 125.361C95.0001 124.595 98.5946 123.971 104.179 122.325C118.846 118.013 131.427 109.501 140.156 97.9544L142.563 94.7484L143.944 94.8336C148.565 95.0889 151.903 90.7765 149.945 87.0599C149.624 86.4357 148.982 85.6413 148.565 85.2725L147.763 84.62L148.79 81.4424C152.128 71.314 152.352 59.8237 149.432 49.6101C148.148 45.0991 146.543 41.2123 144.264 37.1836C142.788 34.6302 142.403 34.1479 141.793 34.1479C141.376 34.1479 140.927 34.233 140.83 34.3465ZM146.319 86.5208C148.597 87.9394 148.437 91.0886 145.998 92.1951C143.494 93.3299 140.606 91.7979 140.606 89.3012C140.606 88.1947 140.766 87.8543 141.697 87.0315C142.596 86.2371 143.013 86.0669 144.2 86.0669C144.971 86.0669 145.933 86.2655 146.319 86.5208ZM42.6547 107.827C43.8422 108.48 44.452 110.069 44.0347 111.317C43.4891 112.934 42.3016 113.729 40.4402 113.729C39.1243 113.729 38.7392 113.587 37.8727 112.849C34.6312 109.955 38.7392 105.643 42.6547 107.827ZM78.5358 118.637C81.1676 119.828 82.5797 121.9 82.6118 124.481C82.6439 130.297 75.1339 133.276 70.1593 129.418C68.3299 127.971 67.6239 126.382 67.8164 123.971C68.009 121.247 69.7421 119.233 72.7589 118.24C74.3636 117.729 76.899 117.899 78.5358 118.637Z" fill="white" stroke="#3A385F" stroke-width="0.742287"/>
<path d="M81.071 37.9499C80.5254 38.1485 78.9528 39.4252 77.5727 40.787C74.6842 43.5957 74.4275 43.6525 70.4799 42.6595C69.2603 42.3474 67.7519 42.0921 67.1742 42.0921C64.5104 42.0921 62.9699 43.9362 62.9057 47.1989C62.9057 48.2202 62.7132 49.582 62.5206 50.2629C62.1034 51.6247 61.3652 52.1071 57.9632 53.1852C56.8079 53.554 55.5562 54.2349 54.8501 54.859C53.1812 56.3343 53.1491 57.7529 54.7859 60.1361C55.4278 61.0439 56.2623 62.2355 56.6153 62.7462C57.5139 64.0796 57.2251 65.3847 55.3636 67.9097C54.144 69.5836 53.791 70.3213 53.6947 71.5128C53.5664 72.9598 53.5984 73.0733 54.6896 73.9811C55.3315 74.5202 56.9041 75.2862 58.1879 75.7401C61.622 76.9033 62.1997 77.3005 62.5848 79.0028C62.7773 79.7688 62.9378 81.0171 62.9378 81.7548C62.9378 83.7408 63.4834 85.1026 64.5746 85.897C65.8263 86.8332 67.3989 86.8616 71.1218 86.0388C72.6302 85.6984 74.2028 85.5281 74.6521 85.6133C75.1015 85.7267 76.321 86.7197 77.5406 88.0248C81.5203 92.2804 83.6385 92.2521 87.6823 87.8829C88.8056 86.663 89.961 85.6984 90.4103 85.6133C90.8917 85.4998 92.3681 85.6984 93.8444 86.0388C96.9896 86.7481 99.1078 86.8048 100.135 86.1807C101.258 85.4714 102.06 83.5989 102.093 81.6697C102.125 78.0382 102.927 76.875 106.104 75.9671C111.978 74.2932 112.78 71.9384 109.153 67.2004C108.672 66.5763 108.126 65.6684 107.934 65.1577C107.549 64.1647 107.837 63.5406 110.212 60.1361C111.528 58.2636 111.753 56.8166 110.951 55.4548C110.469 54.6888 109.763 54.2916 104.917 52.3057C102.831 51.4545 102.767 51.4261 102.446 50.0076C102.253 49.2416 102.093 47.8514 102.093 46.9719C102.06 43.9646 100.456 42.0921 97.8562 42.0921C97.2785 42.0921 95.7058 42.3474 94.4221 42.6879C90.6992 43.5957 90.1215 43.4539 87.8428 41.0707C84.7618 37.9215 83.0929 37.1271 81.071 37.9499ZM83.8952 40.6735C84.3446 40.9856 85.2111 41.8651 85.853 42.6311C88.2921 45.5533 90.282 46.0357 95.417 44.8724C99.1078 44.0213 99.2683 44.1632 99.5571 47.8798C99.9423 52.4191 100.777 53.4405 105.462 55.0009C109.25 56.2492 109.57 56.9301 107.677 59.4268C104.468 63.5973 104.5 65.2428 107.837 69.612C109.538 71.8249 109.153 72.5058 105.462 73.7258C100.777 75.2862 99.9423 76.3076 99.5571 80.8469C99.2683 84.5635 99.1078 84.7054 95.417 83.8542C90.1536 82.6627 88.4847 83.0882 85.6283 86.3509C84.7939 87.2588 83.7669 88.2518 83.3175 88.5071C82.5794 88.9327 82.451 88.9327 81.7128 88.5071C81.2635 88.2518 80.2365 87.2588 79.4021 86.3509C76.642 83.2017 75.0694 82.7478 70.6083 83.7975C69.2924 84.1096 67.7519 84.3649 67.1742 84.3649C65.8584 84.3649 65.6658 83.9394 65.4091 80.6483C65.0881 76.5345 64.1574 75.3997 59.9852 73.9811C55.5883 72.5058 55.4278 72.1938 57.6744 69.1013C59.7284 66.2642 60.1456 64.9024 59.5679 63.1434C59.3112 62.3774 58.6693 61.2425 58.1558 60.6184C56.9041 59.0863 56.1981 57.838 56.1981 57.1571C56.1981 56.5329 57.4497 55.852 60.5308 54.8307C62.7132 54.1214 64.1574 53.0717 64.7672 51.795C65.0239 51.2559 65.3128 49.6388 65.4091 48.2202C65.5053 46.8017 65.73 45.4115 65.8905 45.1278C66.2756 44.4752 67.5915 44.5036 70.6083 45.2129C74.9731 46.2342 75.9359 45.9505 79.4984 42.4893C80.8463 41.1842 82.1943 40.1061 82.5152 40.1061C82.804 40.1061 83.4459 40.3614 83.8952 40.6735Z" fill="white" stroke="#3A385F" stroke-width="0.742287"/>
<path d="M77.6373 46.4894C71.7962 47.7661 66.7574 51.2841 64.0615 56.0221C62.3284 59.0294 61.847 60.8735 61.8149 64.3631C61.8149 67.0868 61.9433 67.8244 62.7457 70.0374C63.9331 73.2149 66.2118 76.2506 68.9719 78.3217C71.2506 80.0523 72.4381 80.2793 72.759 79.0877C72.9516 78.4352 72.7911 78.1798 71.5715 77.3003C68.3942 75.0023 66.5007 72.7042 65.3132 69.6402C61.847 60.8451 67.8807 51.0855 78.1829 48.7591C84.3129 47.3973 90.7317 49.0144 95.3532 53.1282C106.233 62.8027 99.718 78.8608 84.3129 80.3928C82.9007 80.563 81.6491 80.8184 81.4886 81.017C81.1035 81.556 81.1677 82.0099 81.7133 82.4922C82.7403 83.3717 88.3567 82.4071 92.1759 80.6481C96.9258 78.4636 100.617 74.6051 102.286 70.0941C103.409 67.1151 103.569 62.2637 102.639 59.5401C100.36 52.9012 94.583 48.0214 87.2334 46.4894C84.7622 45.9787 80.0765 45.9787 77.6373 46.4894Z" fill="white" stroke="#3A385F" stroke-width="0.742287"/>
<path d="M71.9246 56.476C70.2555 58.1499 68.9716 60.8735 68.779 63.0865C68.6506 64.8171 68.6827 65.0441 69.3247 65.3278C70.2555 65.7817 71.2826 64.8455 71.2826 63.5404C71.2826 62.0084 72.2135 59.8522 73.5616 58.2918C74.9097 56.7314 75.0381 56.3058 74.4282 55.7667C73.7542 55.1709 72.9838 55.3979 71.9246 56.476Z" fill="white" stroke="#3A385F" stroke-width="0.742287"/>
<path d="M92.3682 57.6109C91.9509 57.9514 92.1435 59.0011 92.8496 60.2778C93.8126 62.0085 94.0373 65.6116 93.299 67.5692C92.978 68.3636 92.3361 69.5268 91.7904 70.1509C90.6991 71.5128 90.6028 72.3071 91.5336 72.7611C92.0793 73.0164 92.3361 72.9597 92.978 72.4206C96.3483 69.6403 97.3433 63.5121 95.1286 59.3132C94.294 57.7528 93.9731 57.4123 93.3311 57.4123C92.9138 57.4123 92.4645 57.4975 92.3682 57.6109Z" fill="white" stroke="#3A385F" stroke-width="0.742287"/>
<path d="M1.67071 56.533C1.47812 56.8167 1.22134 58.8594 1.12505 61.044C0.900362 64.9025 0.93246 65.0159 1.60651 65.328C2.05588 65.555 2.47315 65.5834 2.85832 65.3848C3.40398 65.1294 3.50028 64.562 3.69286 60.9305C3.91755 56.5897 3.78915 55.994 2.56944 55.994C2.24847 55.994 1.8312 56.2493 1.67071 56.533Z" fill="white" stroke="#3A385F" stroke-width="0.742287"/>
<path d="M161.885 63.7107C161.692 63.9093 161.467 65.64 161.339 67.5692C161.146 70.7467 160.922 72.6476 160.312 76.4493C160.119 77.6125 160.183 77.8111 160.793 78.0948C162.591 78.9743 163.072 77.5274 163.778 69.1012C164.196 64.2214 164.099 63.5972 162.848 63.427C162.495 63.3703 162.077 63.5121 161.885 63.7107Z" fill="white" stroke="#3A385F" stroke-width="0.742287"/>
<path d="M2.66525 77.1586C2.18378 77.9246 3.91706 84.223 5.87502 88.8191C6.38858 90.039 6.64536 90.3228 7.22312 90.3228C8.69961 90.3228 8.828 89.6986 7.86507 87.1452C7.38361 85.8401 6.45278 83.003 5.81082 80.8185C4.7516 77.0167 4.6553 76.8465 3.82076 76.7614C3.2751 76.7047 2.85783 76.8465 2.66525 77.1586Z" fill="white" stroke="#3A385F" stroke-width="0.742287"/>
<path d="M8.98799 94.1812C8.63496 94.5784 8.79543 95.0607 10.2397 97.5574C12.2295 100.99 15.9203 106.097 16.5943 106.324C17.2683 106.551 17.9422 106.239 18.1669 105.615C18.3274 105.218 17.846 104.338 16.6264 102.693C15.6315 101.416 13.9626 98.8624 12.8393 97.0467C11.2025 94.3514 10.7211 93.7273 10.1434 93.7273C9.72616 93.7273 9.21265 93.9259 8.98799 94.1812Z" fill="white" stroke="#3A385F" stroke-width="0.742287"/>
<path d="M116.888 99.1457C113.807 99.7131 111.946 102.692 112.973 105.444C113.775 107.6 116.921 109.076 119.392 108.48C121.735 107.912 123.596 105.898 123.596 103.884C123.596 102.664 122.409 100.593 121.317 99.8834C120.258 99.2024 118.333 98.8904 116.888 99.1457ZM120.066 101.954C122.344 103.969 119.713 107.373 116.888 106.068C114.096 104.792 114.995 101.387 118.14 101.387C118.975 101.387 119.649 101.586 120.066 101.954Z" fill="white" stroke="#3A385F" stroke-width="0.742287"/>
<path d="M147.089 104.707C146.607 105.161 145.291 106.608 144.136 107.913C143.013 109.246 139.996 112.14 137.46 114.353C133.834 117.531 132.903 118.495 133.063 118.949C133.352 119.744 134.155 119.914 135.118 119.375C136.69 118.467 143.719 112.027 146.511 108.906C149.367 105.7 149.784 104.764 148.629 104.225C148.084 103.969 147.827 104.055 147.089 104.707Z" fill="white" stroke="#3A385F" stroke-width="0.742287"/>
<path d="M123.275 124.113C121.766 124.936 118.974 126.269 117.017 127.092C115.091 127.943 113.294 128.737 113.101 128.907C112.459 129.39 112.62 130.269 113.358 130.638C113.936 130.893 114.706 130.666 118.589 128.964C123.532 126.751 127.351 124.737 127.608 124.141C127.832 123.574 127.19 122.666 126.548 122.666C126.26 122.666 124.783 123.318 123.275 124.113Z" fill="white" stroke="#3A385F" stroke-width="0.742287"/>
<path d="M101.611 132.056C99.6858 132.51 96.5085 133.078 94.6149 133.333C91.919 133.702 91.0846 133.929 90.8278 134.326C90.4106 135.035 90.9883 136 91.7907 136C92.7535 136 99.7179 134.894 101.9 134.411C107.324 133.191 107.806 132.964 107.388 131.716C107.132 130.978 105.944 131.063 101.611 132.056Z" fill="white" stroke="#3A385F" stroke-width="0.742287"/>
</svg>
