<svg width="163" height="164" viewBox="0 0 163 164" fill="none" xmlns="http://www.w3.org/2000/svg">
<path d="M4.96418 1.27489C3.05854 1.94013 0.87059 4.35602 0.270668 6.4568C-0.682151 9.88807 0.94117 13.5644 4.18781 15.175C8.24611 17.1708 12.5514 15.7702 14.5277 11.8138C16.0451 8.80266 15.6216 5.79155 13.2925 3.30564C11.034 0.889746 8.06966 0.154474 4.96418 1.27489ZM10.1517 4.0059C13.2572 5.61649 13.716 9.85305 11.034 12.1989C8.77546 14.1596 5.84642 13.9496 3.79963 11.6737C1.89399 9.50292 2.49391 5.6515 4.96418 4.18096C6.30519 3.34065 8.70488 3.27062 10.1517 4.0059Z" fill="white"/>
<path d="M115.526 3.34036C115.208 3.62047 114.961 3.93558 114.961 4.04062C114.961 4.11065 115.526 4.81091 116.267 5.58119L117.538 7.01672L116.444 8.13713C115.279 9.32757 115.032 10.413 115.738 11.1132C116.373 11.7435 116.585 11.6384 118.137 10.2729L119.549 9.01246L120.961 10.2729C122.337 11.4984 123.184 11.6384 123.572 10.6231C123.819 9.95781 123.396 9.15251 122.231 8.06711L121.314 7.2268L122.549 5.86129C123.89 4.39075 124.066 3.79553 123.254 3.13029C122.584 2.57008 121.631 2.92021 120.431 4.18067L119.443 5.19605L118.067 4.00561C116.549 2.60509 116.302 2.57008 115.526 3.34036Z" fill="white"/>
<path d="M156.251 6.59737C156.074 6.98252 155.898 7.92786 155.898 8.69815V10.1337H154.133C152.828 10.1337 152.298 10.2737 152.051 10.7639C151.451 11.9193 152.228 12.5846 154.133 12.5846H155.898V14.0201C155.898 15.7357 156.427 16.7861 157.239 16.7861C158.298 16.7861 158.721 16.0509 158.721 14.2652V12.5846H160.45C163.803 12.5846 163.873 10.4138 160.521 10.2037L158.721 10.0987V8.41805C158.721 7.50771 158.545 6.59737 158.298 6.35228C157.662 5.72205 156.674 5.8621 156.251 6.59737Z" fill="white"/>
<path d="M77.0251 8.73297C51.4755 10.3786 28.2902 25.6792 16.5741 48.5777C11.1395 59.1866 8.70451 69.3754 8.70451 81.5598C8.66923 93.2892 10.8925 102.848 15.9742 113.247C23.1732 128.022 35.207 139.996 49.8522 147.034C60.2273 152.041 70.4966 154.387 82.0363 154.387C94.2112 154.387 104.657 151.936 115.138 146.684C120.749 143.848 123.643 142.027 128.23 138.386C142.84 126.691 152.439 109.92 154.98 91.4335C155.615 86.8818 155.721 77.1832 155.156 72.8066C153.498 59.3967 147.851 46.1268 139.452 35.7629C136.947 32.6468 131.301 27.1148 128.019 24.4888C113.656 13.1096 95.5875 7.54254 77.0251 8.73297ZM80.7306 20.4273V29.6357L77.6956 29.8808C67.3205 30.6511 57.5806 34.6075 48.8288 41.5751L46.0409 43.8159L39.5829 37.4086C36.0187 33.8723 33.0896 30.8611 33.0896 30.7211C33.0896 30.3009 39.7593 24.944 42.9001 22.8432C53.0988 16.0857 67.2852 11.464 78.5426 11.2189L80.7306 11.1839V20.4273ZM90.0823 11.534C104.727 13.2146 118.808 19.4819 129.607 29.1455L131.371 30.7561L124.807 37.3035L118.208 43.8159L115.103 41.295C106.951 34.7476 96.7167 30.6511 86.5886 29.8808L83.5537 29.6357V20.4273V11.1839H85.2476C86.1651 11.1839 88.3531 11.3589 90.0823 11.534ZM92.0938 33.242C112.244 37.4436 127.101 52.6042 131.053 72.9817C131.9 77.3233 131.9 85.8314 131.053 90.3131C127.313 109.605 112.915 124.801 94.0347 129.352C78.2603 133.169 62.1329 129.352 49.6404 118.814C41.3474 111.846 35.454 101.622 33.2308 90.4531C32.278 85.7964 32.3838 76.588 33.3719 71.8613C35.4893 62.0226 40.0417 53.6195 47.029 46.722C54.8986 38.9141 64.7444 34.1173 76.1429 32.5418C79.7424 32.0516 88.1767 32.4017 92.0938 33.242ZM37.6067 39.2993L44.1 45.7416L41.5591 48.8578C38.9477 52.079 35.8069 57.0508 34.4659 60.0619C32.2074 65.2088 30.4782 71.8613 30.0547 77.0782L29.8077 80.1593H20.5265H11.2101V78.4437C11.2101 77.4983 11.4571 74.7673 11.7747 72.3865C13.5039 59.1166 18.9032 46.9321 27.7962 36.2531C29.3489 34.3974 30.7605 32.8919 30.9017 32.8919C31.0428 32.8919 34.0777 35.798 37.6067 39.2993ZM135.5 35.0627C145.134 46.0217 151.063 59.4317 152.721 74.0321C152.898 75.7477 153.074 77.8485 153.074 78.6538V80.1593H143.758H134.477L134.23 77.2533C133.312 66.6443 129.289 56.8757 122.266 48.3676L120.149 45.7766L126.642 39.3343C130.207 35.798 133.241 32.8919 133.347 32.8919C133.488 32.8919 134.441 33.8723 135.5 35.0627ZM30.0547 85.8314C30.937 96.4053 35.0305 106.279 42.0179 114.752L44.1353 117.343L37.5714 123.855L30.9722 130.403L29.3136 128.512C18.7268 116.643 12.3393 101.692 11.3159 86.3916L11.1042 82.9604H20.4559H29.8077L30.0547 85.8314ZM153.074 84.3609C153.074 87.0219 152.333 92.5889 151.451 96.6154C148.981 107.714 144.04 117.693 136.523 126.691C134.9 128.652 133.488 130.228 133.347 130.228C133.241 130.228 130.207 127.322 126.642 123.785L120.114 117.308L121.102 116.153C129.254 106.279 133.241 97.0706 134.194 85.8314L134.477 82.9604H143.758H153.074V84.3609ZM48.9346 121.545C57.5453 128.442 66.9676 132.224 78.0133 133.204L80.7306 133.449V142.692V151.936H79.4248C74.5549 151.936 66.0501 150.325 59.698 148.259C50.558 145.283 42.6531 140.697 34.1483 133.414L32.9132 132.364L39.4417 125.851C43.0413 122.28 46.0056 119.374 46.0762 119.374C46.1468 119.374 47.4172 120.354 48.9346 121.545ZM124.843 125.851L131.371 132.364L129.783 133.764C117.502 144.548 102.998 150.605 86.8356 151.796L83.5537 152.041V142.762V133.484L87.5414 133.064C98.1636 131.943 107.939 127.812 115.844 121.159C116.973 120.179 118.032 119.374 118.138 119.374C118.243 119.374 121.243 122.28 124.843 125.851Z" fill="white"/>
<path d="M55.4282 56.3851C50.7346 57.8556 46.4646 61.8471 44.7354 66.3988C43.0768 70.7404 43.4297 76.1674 45.6882 80.684C46.9587 83.24 70.4615 106.629 72.2966 107.154C74.5551 107.854 75.8608 107.119 80.3073 102.812L84.2597 98.9258L89.4826 104.038C95.1289 109.605 96.1523 110.2 98.2344 109.115C98.799 108.799 103.422 104.423 108.468 99.3459C116.973 90.8728 117.75 89.9625 118.491 88.0367C119.126 86.2861 119.232 85.4108 119.126 82.7848C119.02 80.0188 118.844 79.3535 117.82 77.4278C116.373 74.8019 114.185 72.7011 111.503 71.4756C109.809 70.7054 108.998 70.5653 106.422 70.5303C103.493 70.5303 103.316 70.4953 103.316 69.795C103.316 68.5696 101.975 65.1033 100.811 63.2826C95.3054 54.7745 82.6717 53.0939 75.2256 59.9214L73.6376 61.3569L72.5083 60.3065C68.1324 56.175 61.1804 54.5644 55.4282 56.3851ZM64.8152 58.7659C67.5678 59.6063 70.1792 61.2869 71.8025 63.2126C72.473 64.0529 73.2847 64.7532 73.5317 64.7532C73.814 64.7532 74.9786 63.8078 76.1078 62.6524C80.6602 58.0307 87.0123 56.9453 92.9763 59.7463C96.8581 61.532 100.281 66.0486 100.74 69.9351C100.916 71.5457 100.881 71.6157 99.6813 72.2459C98.9755 72.5961 98.058 73.2613 97.6345 73.7165L96.8581 74.5218L95.5877 73.4364C94.9172 72.8411 93.4703 71.9308 92.3763 71.4406C90.7177 70.6703 89.9414 70.5303 87.0829 70.5303C83.9774 70.5303 83.5187 70.6353 81.366 71.6857C76.7078 73.9616 74.2375 77.953 74.2022 83.31C74.2022 87.4415 75.3668 89.8574 79.3545 93.9889L82.2835 97.0001L78.437 100.816C75.1903 104.038 74.3787 104.668 73.4964 104.668C72.5436 104.668 70.9556 103.232 60.5804 92.8335C47.6644 79.9838 47.2057 79.3886 46.394 74.7668C45.1942 67.6942 49.7818 60.5166 56.7339 58.6609C59.4159 57.9606 62.2743 57.9957 64.8152 58.7659ZM91.5647 73.9265C92.4822 74.3467 93.9291 75.3971 94.7407 76.2024C95.5171 77.0427 96.3994 77.7079 96.6464 77.7079C96.8581 77.7079 97.8462 76.9727 98.799 76.0973C101.199 73.8565 103.246 73.0162 106.316 73.0162C110.48 72.9812 113.762 75.047 115.703 78.8634C116.797 80.9291 117.008 84.4304 116.197 86.8463C115.632 88.5619 114.785 89.5423 106.563 97.7353C100.599 103.688 97.2816 106.769 96.7875 106.769C96.3288 106.769 93.0116 103.723 87.1888 97.9104C77.2018 88.0017 76.7078 87.3365 76.7431 83.31C76.7431 75.6072 84.5421 70.6703 91.5647 73.9265Z" fill="white"/>
<path d="M27.3029 11.0433C26.5265 11.8136 26.5971 12.0586 27.9381 13.5642L29.138 14.8597L27.9381 16.1902C26.5971 17.6607 26.5265 17.9058 27.3029 18.6761C28.0793 19.4464 28.3263 19.3763 29.8438 18.0459L31.1495 16.8554L32.4905 18.0459C33.9726 19.3763 34.2197 19.4464 34.996 18.6761C35.7724 17.9058 35.7018 17.6607 34.3608 16.1552L33.161 14.8597L34.3608 13.5292C35.7018 12.0586 35.7724 11.8136 34.996 11.0433C34.2197 10.273 33.9726 10.343 32.4552 11.6735L31.1495 12.8639L29.8085 11.6735C28.3263 10.343 28.0793 10.273 27.3029 11.0433Z" fill="white"/>
<path d="M154.381 32.2258C153.957 32.4709 153.781 33.0311 153.781 34.2916V36.0422H152.334C150.605 36.0422 149.546 36.5674 149.546 37.3727C149.546 38.4231 150.287 38.8433 152.051 38.8433H153.745L153.851 40.6289C154.063 43.9552 156.251 43.8851 156.251 40.5589V38.8433H157.945C159.745 38.8433 160.486 38.4231 160.486 37.3727C160.486 36.5674 159.427 36.0422 157.698 36.0422H156.251V34.2916C156.251 32.4009 155.545 31.5956 154.381 32.2258Z" fill="white"/>
<path d="M148.593 142.377C147.781 142.692 148.099 143.988 149.228 145.178L150.357 146.299L149.228 147.559C147.04 150.045 148.804 151.726 151.169 149.45L152.369 148.294L153.569 149.45C154.38 150.22 155.015 150.57 155.58 150.465C156.886 150.29 156.815 149.205 155.404 147.769L154.133 146.474L155.368 145.283C156.674 144.058 156.886 143.252 156.18 142.552C155.509 141.887 154.945 142.062 153.498 143.357L152.122 144.548L150.957 143.357C149.793 142.167 149.44 142.027 148.593 142.377Z" fill="white"/>
<path d="M10.081 145.073C8.06945 145.809 7.08134 146.544 6.02266 148.154C4.68165 150.115 4.46992 153.651 5.49331 155.647C6.94019 158.413 9.48104 159.989 12.5159 159.989C15.692 159.954 18.7269 157.818 19.6797 154.912C20.3502 152.881 19.9973 149.8 18.8681 148.119C17.033 145.388 12.9747 143.988 10.081 145.073ZM15.6567 148.47C17.1036 149.8 17.6682 151.166 17.4565 152.846C16.8918 157.923 10.2574 159.218 7.96358 154.702C6.76374 152.391 7.32837 150.08 9.51633 148.259C10.5397 147.419 10.8573 147.314 12.6924 147.454C14.2451 147.559 14.9509 147.804 15.6567 148.47Z" fill="white"/>
<path d="M115.95 155.472C115.032 155.997 115.174 156.942 116.373 158.063C117.679 159.323 117.679 159.603 116.373 160.864C115.209 161.984 115.103 163 116.091 163.63C116.585 163.945 116.973 163.735 118.138 162.615L119.549 161.249L120.961 162.615C122.126 163.735 122.514 163.945 123.008 163.63C124.031 162.965 123.925 162.089 122.584 160.724L121.314 159.428L122.549 158.238C123.925 156.907 124.102 155.997 123.078 155.437C122.514 155.122 122.161 155.297 120.961 156.347L119.549 157.608L118.138 156.347C117.361 155.647 116.691 155.087 116.62 155.087C116.585 155.087 116.268 155.262 115.95 155.472Z" fill="white"/>
</svg>
