<svg width="186" height="169" viewBox="0 0 186 169" fill="none" xmlns="http://www.w3.org/2000/svg">
<mask id="path-1-inside-1_101_104" fill="white">
<path d="M94.1676 0.272934C93.9124 0.443512 93.4019 1.84224 93.0372 3.44565C92.5632 5.45847 92.2715 6.10664 92.0892 5.62904C91.6151 4.33266 91.287 3.92326 90.5941 3.82092C89.5002 3.68446 0.636387 24.2219 0.0529564 24.7336C-0.421081 25.1771 2.02204 34.6953 18.2852 96.6146C29.0057 137.485 37.2831 168.257 37.6113 168.666C38.2677 169.383 35.1317 170.065 87.604 157.954L103.503 154.269L127.861 159.182C144.671 162.525 152.401 163.958 152.839 163.754C153.167 163.583 153.532 163.071 153.641 162.662C153.751 162.218 161.189 129.741 170.16 90.4738C184.271 28.6569 186.386 19.0022 185.949 18.5587C185.365 18.047 184.454 17.8423 153.167 11.5992C141.024 9.17703 123.011 5.56081 113.093 3.58212C103.211 1.60342 95.0063 1.52588e-05 94.8605 1.52588e-05C94.7511 1.52588e-05 94.4229 0.136475 94.1676 0.272934ZM103.94 4.60558C107.441 5.32199 110.431 5.97018 110.577 6.10664C110.978 6.4478 108.644 11.531 107.113 13.7144C104.487 17.3647 98.1787 21.9703 96.5378 21.3903C96.2826 21.3221 95.5898 19.3775 95.0063 17.0918L93.9489 12.9638L94.9699 8.25592C95.5533 5.69727 96.0638 3.44565 96.1732 3.30919C96.2826 3.17273 96.6108 3.10451 96.9389 3.20685C97.3036 3.27509 100.44 3.92326 103.94 4.60558ZM143.613 12.5544L165.273 16.8871L165.346 22.0044C165.419 26.5076 165.565 27.4628 166.404 29.8509C168.263 35.0706 171.509 38.9938 175.666 41.0407C176.942 41.6207 177.963 42.303 177.963 42.5418C177.963 42.7465 173.113 64.1709 167.169 90.1327C161.262 116.094 156.303 137.724 156.194 138.235C156.011 139.088 155.829 139.191 154.407 139.191C146.676 139.191 138.982 144.751 135.044 153.178C134.388 154.577 133.841 156.009 133.841 156.351C133.841 156.692 133.622 157.033 133.33 157.135C132.856 157.306 112.582 153.451 111.124 152.905C110.686 152.734 113.64 151.95 119.328 150.653C124.214 149.562 128.408 148.504 128.663 148.333C128.882 148.129 129.101 147.651 129.101 147.242C129.101 146.866 126.074 135.097 122.391 121.144L115.718 95.7958L118.088 94.8065C119.401 94.2265 120.677 93.8513 120.896 93.8854C121.151 93.9536 125.235 98.0474 129.976 103.028C135.664 108.964 138.946 112.103 139.456 112.171C141.243 112.41 141.243 112.035 139.858 99.5826C139.128 93.1348 138.581 87.5058 138.654 87.0282C138.764 86.2777 140.003 85.6977 150.76 81.2286C157.36 78.4994 162.94 75.9748 163.158 75.6337C164.106 74.2349 163.341 73.962 149.703 71.2328C142.556 69.8 136.612 68.5718 136.539 68.4695C136.466 68.4012 135.81 62.9769 135.081 56.4268C134.388 49.8766 133.659 44.1794 133.44 43.7358C133.185 43.1218 132.856 42.9512 132.127 43.0535C131.252 43.1559 130.377 44.384 124.506 53.9022C119.547 61.9193 117.651 64.6485 117.177 64.6144C116.812 64.6144 114.369 64.1709 111.78 63.6592L107.003 62.704L102.117 44.0429C99.455 33.8083 97.1942 25.1771 97.1213 24.9042C97.0119 24.5289 97.5224 24.1878 98.7986 23.7443C99.8196 23.4031 101.752 22.3797 103.138 21.4927C107.951 18.354 111.525 13.4073 113.567 7.13011C113.713 6.61838 114.114 6.6525 117.87 7.40303C120.13 7.84653 131.726 10.1664 143.613 12.5544ZM89.3543 6.95953C89.3543 7.02777 97.5588 38.3115 107.587 76.4524C117.614 114.593 125.819 145.911 125.819 146.048C125.819 146.184 116.338 148.47 104.779 151.131C93.1831 153.792 73.857 158.261 61.8237 161.024C49.7904 163.822 39.8356 165.971 39.6898 165.869C39.3981 165.562 2.93365 26.8488 3.11597 26.6441C3.26183 26.5417 20.8377 22.4479 62.9176 12.7933C74.1487 10.2346 84.5046 7.84653 85.8902 7.50539C88.5157 6.85719 89.3543 6.72073 89.3543 6.95953ZM179.276 19.6504C180.917 19.9575 182.412 20.2986 182.63 20.4351C182.922 20.6057 182.412 23.4372 180.989 29.6803C179.896 34.6612 178.838 38.8574 178.692 38.9938C178.218 39.4714 175.374 37.9021 173.551 36.1281C171.399 34.0812 169.394 30.3285 168.664 27.1217C168.117 24.6654 167.935 20.3327 168.336 18.5246L168.555 17.5012L172.42 18.2858C174.572 18.7293 177.671 19.3434 179.276 19.6504ZM132.419 59.5312C133.112 66.0132 133.732 70.2776 134.023 70.5505C134.279 70.8234 139.347 71.9833 145.327 73.1774C151.307 74.4055 156.376 75.429 156.558 75.4972C156.777 75.5654 152.365 77.51 146.749 79.8299C141.17 82.1497 136.284 84.299 135.919 84.606C135.3 85.1518 135.3 85.5612 136.393 95.1818C137.013 100.674 137.487 105.485 137.414 105.826C137.342 106.337 135.372 104.495 129.903 98.798C125.819 94.5677 122.209 90.9515 121.881 90.7809C121.407 90.5421 120.458 90.7809 118.416 91.6338C116.849 92.282 115.426 92.7937 115.244 92.7937C114.916 92.7937 107.805 66.1837 108.097 65.9449C108.206 65.8426 110.577 66.252 113.421 66.8319C116.229 67.3778 118.781 67.7872 119.036 67.6848C119.328 67.5825 122.136 63.2839 125.308 58.1666C128.481 53.0152 131.106 48.8531 131.179 48.8873C131.215 48.9555 131.762 53.7316 132.419 59.5312ZM155.173 142.67C155.063 143.114 154.115 147.344 153.021 152.086C151.927 156.862 150.979 160.786 150.906 160.82C150.724 160.956 136.831 158.159 136.576 157.92C136.175 157.51 138.435 152.632 140.186 150.176C143.686 145.229 148.974 142.09 154.006 141.954C155.246 141.92 155.355 141.988 155.173 142.67Z"/>
</mask>
<path d="M94.1676 0.272934C93.9124 0.443512 93.4019 1.84224 93.0372 3.44565C92.5632 5.45847 92.2715 6.10664 92.0892 5.62904C91.6151 4.33266 91.287 3.92326 90.5941 3.82092C89.5002 3.68446 0.636387 24.2219 0.0529564 24.7336C-0.421081 25.1771 2.02204 34.6953 18.2852 96.6146C29.0057 137.485 37.2831 168.257 37.6113 168.666C38.2677 169.383 35.1317 170.065 87.604 157.954L103.503 154.269L127.861 159.182C144.671 162.525 152.401 163.958 152.839 163.754C153.167 163.583 153.532 163.071 153.641 162.662C153.751 162.218 161.189 129.741 170.16 90.4738C184.271 28.6569 186.386 19.0022 185.949 18.5587C185.365 18.047 184.454 17.8423 153.167 11.5992C141.024 9.17703 123.011 5.56081 113.093 3.58212C103.211 1.60342 95.0063 1.52588e-05 94.8605 1.52588e-05C94.7511 1.52588e-05 94.4229 0.136475 94.1676 0.272934ZM103.94 4.60558C107.441 5.32199 110.431 5.97018 110.577 6.10664C110.978 6.4478 108.644 11.531 107.113 13.7144C104.487 17.3647 98.1787 21.9703 96.5378 21.3903C96.2826 21.3221 95.5898 19.3775 95.0063 17.0918L93.9489 12.9638L94.9699 8.25592C95.5533 5.69727 96.0638 3.44565 96.1732 3.30919C96.2826 3.17273 96.6108 3.10451 96.9389 3.20685C97.3036 3.27509 100.44 3.92326 103.94 4.60558ZM143.613 12.5544L165.273 16.8871L165.346 22.0044C165.419 26.5076 165.565 27.4628 166.404 29.8509C168.263 35.0706 171.509 38.9938 175.666 41.0407C176.942 41.6207 177.963 42.303 177.963 42.5418C177.963 42.7465 173.113 64.1709 167.169 90.1327C161.262 116.094 156.303 137.724 156.194 138.235C156.011 139.088 155.829 139.191 154.407 139.191C146.676 139.191 138.982 144.751 135.044 153.178C134.388 154.577 133.841 156.009 133.841 156.351C133.841 156.692 133.622 157.033 133.33 157.135C132.856 157.306 112.582 153.451 111.124 152.905C110.686 152.734 113.64 151.95 119.328 150.653C124.214 149.562 128.408 148.504 128.663 148.333C128.882 148.129 129.101 147.651 129.101 147.242C129.101 146.866 126.074 135.097 122.391 121.144L115.718 95.7958L118.088 94.8065C119.401 94.2265 120.677 93.8513 120.896 93.8854C121.151 93.9536 125.235 98.0474 129.976 103.028C135.664 108.964 138.946 112.103 139.456 112.171C141.243 112.41 141.243 112.035 139.858 99.5826C139.128 93.1348 138.581 87.5058 138.654 87.0282C138.764 86.2777 140.003 85.6977 150.76 81.2286C157.36 78.4994 162.94 75.9748 163.158 75.6337C164.106 74.2349 163.341 73.962 149.703 71.2328C142.556 69.8 136.612 68.5718 136.539 68.4695C136.466 68.4012 135.81 62.9769 135.081 56.4268C134.388 49.8766 133.659 44.1794 133.44 43.7358C133.185 43.1218 132.856 42.9512 132.127 43.0535C131.252 43.1559 130.377 44.384 124.506 53.9022C119.547 61.9193 117.651 64.6485 117.177 64.6144C116.812 64.6144 114.369 64.1709 111.78 63.6592L107.003 62.704L102.117 44.0429C99.455 33.8083 97.1942 25.1771 97.1213 24.9042C97.0119 24.5289 97.5224 24.1878 98.7986 23.7443C99.8196 23.4031 101.752 22.3797 103.138 21.4927C107.951 18.354 111.525 13.4073 113.567 7.13011C113.713 6.61838 114.114 6.6525 117.87 7.40303C120.13 7.84653 131.726 10.1664 143.613 12.5544ZM89.3543 6.95953C89.3543 7.02777 97.5588 38.3115 107.587 76.4524C117.614 114.593 125.819 145.911 125.819 146.048C125.819 146.184 116.338 148.47 104.779 151.131C93.1831 153.792 73.857 158.261 61.8237 161.024C49.7904 163.822 39.8356 165.971 39.6898 165.869C39.3981 165.562 2.93365 26.8488 3.11597 26.6441C3.26183 26.5417 20.8377 22.4479 62.9176 12.7933C74.1487 10.2346 84.5046 7.84653 85.8902 7.50539C88.5157 6.85719 89.3543 6.72073 89.3543 6.95953ZM179.276 19.6504C180.917 19.9575 182.412 20.2986 182.63 20.4351C182.922 20.6057 182.412 23.4372 180.989 29.6803C179.896 34.6612 178.838 38.8574 178.692 38.9938C178.218 39.4714 175.374 37.9021 173.551 36.1281C171.399 34.0812 169.394 30.3285 168.664 27.1217C168.117 24.6654 167.935 20.3327 168.336 18.5246L168.555 17.5012L172.42 18.2858C174.572 18.7293 177.671 19.3434 179.276 19.6504ZM132.419 59.5312C133.112 66.0132 133.732 70.2776 134.023 70.5505C134.279 70.8234 139.347 71.9833 145.327 73.1774C151.307 74.4055 156.376 75.429 156.558 75.4972C156.777 75.5654 152.365 77.51 146.749 79.8299C141.17 82.1497 136.284 84.299 135.919 84.606C135.3 85.1518 135.3 85.5612 136.393 95.1818C137.013 100.674 137.487 105.485 137.414 105.826C137.342 106.337 135.372 104.495 129.903 98.798C125.819 94.5677 122.209 90.9515 121.881 90.7809C121.407 90.5421 120.458 90.7809 118.416 91.6338C116.849 92.282 115.426 92.7937 115.244 92.7937C114.916 92.7937 107.805 66.1837 108.097 65.9449C108.206 65.8426 110.577 66.252 113.421 66.8319C116.229 67.3778 118.781 67.7872 119.036 67.6848C119.328 67.5825 122.136 63.2839 125.308 58.1666C128.481 53.0152 131.106 48.8531 131.179 48.8873C131.215 48.9555 131.762 53.7316 132.419 59.5312ZM155.173 142.67C155.063 143.114 154.115 147.344 153.021 152.086C151.927 156.862 150.979 160.786 150.906 160.82C150.724 160.956 136.831 158.159 136.576 157.92C136.175 157.51 138.435 152.632 140.186 150.176C143.686 145.229 148.974 142.09 154.006 141.954C155.246 141.92 155.355 141.988 155.173 142.67Z" fill="white" stroke="#2A2C47" stroke-width="1.4" mask="url(#path-1-inside-1_101_104)"/>
<mask id="path-2-inside-2_101_104" fill="white">
<path d="M73.5292 19.5142C72.18 20.2306 68.0596 29.5441 67.1115 34.0473L66.6739 36.0601L64.7778 36.606C62.0429 37.4248 59.4175 37.3565 58.1777 36.4695C57.5943 35.9919 56.1722 33.7744 54.5313 30.5676C50.9213 23.5739 49.0251 21.834 44.9411 21.834C42.2792 21.834 39.7267 23.1645 37.94 25.4844C36.2626 27.6678 35.3145 29.9194 34.0747 34.4226C33.6007 36.1966 33.1266 37.6977 33.0537 37.7659C32.9808 37.8683 32.0327 37.1859 31.0117 36.3331C27.9122 33.7403 23.8282 31.0452 23.026 31.0452C21.458 31.0452 21.458 32.1028 22.9895 36.3331C24.7034 40.9727 26.636 44.6572 28.9697 47.864C29.8813 49.1263 30.6471 50.2862 30.6471 50.4568C30.6471 50.6274 30.3189 50.9003 29.9178 51.0026C28.7145 51.3779 25.6879 54.3801 24.7034 56.1541C22.552 60.2138 22.4061 65.1264 24.3752 69.0497C25.9432 72.1541 26.8912 73.2458 33.9289 80.0007C41.6593 87.3696 42.1698 88.2225 42.0969 93.6468C42.0604 96.7513 41.6958 98.9347 40.1278 106.099C37.867 116.402 37.393 121.928 38.4505 125.34C39.3621 128.24 42.024 130.696 45.4152 131.651C46.7643 132.061 48.624 132.368 49.5721 132.368H51.3224L50.666 136.496C50.0097 140.862 50.0461 141.442 50.9942 141.715C52.3434 142.125 58.7976 142.875 59.2716 142.705C59.8186 142.534 59.9645 142.193 60.3656 140.282L60.6208 139.157L62.4805 141.476C66.6375 146.696 71.3778 150.108 75.2066 150.619C77.358 150.926 80.2751 150.142 82.3901 148.743C85.4531 146.628 86.6929 143.694 87.5316 136.291C88.0056 132.163 88.662 130.15 90.0111 128.649L90.9957 127.523L93.3659 130.628C94.6786 132.334 96.0278 133.801 96.3924 133.937C97.0852 134.142 101.096 131.788 103.284 129.911C104.524 128.82 104.488 128.717 101.716 125.169C100.732 123.907 99.9295 122.747 99.9295 122.611C99.9295 122.44 100.95 121.587 102.19 120.768C104.889 118.926 107.368 115.89 108.17 113.502C108.973 111.046 109.228 105.075 108.717 101.664C108.134 98.1159 106.785 93.6468 105.472 91.1223C104.779 89.7918 103.029 87.779 99.5648 84.4357C91.9438 77.0326 91.4333 75.7363 90.8498 61.749C90.4487 51.7873 89.7194 48.1028 87.3128 44.0772C85.7448 41.4504 81.6608 37.5271 78.853 35.9919L76.9569 34.9685V31.3863C76.9569 28.2136 76.2276 22.0729 75.6442 20.3671C75.3524 19.5142 74.3314 19.1048 73.5292 19.5142ZM47.0925 25.075C48.5876 25.8255 49.9003 27.6678 51.7964 31.591C53.9114 36.0943 55.6617 38.5164 57.339 39.3011C58.8341 40.0175 62.444 40.1881 64.5225 39.6081C65.2153 39.4034 65.8717 39.3011 65.9446 39.4034C66.054 39.5058 61.8242 67.1733 61.0219 71.233C60.8396 72.1883 60.7302 72.2906 60.3291 71.9153C60.0739 71.6765 54.4219 64.5123 47.7853 55.9835L35.7156 40.461L36.4814 36.913C38.5234 27.2925 42.498 22.8916 47.0925 25.075ZM74.0397 31.3863C74.0762 34.252 73.3469 39.4034 70.5027 57.5528C68.5336 70.0049 66.8562 80.1712 66.7468 80.1712C66.3457 80.1371 63.465 76.0433 63.465 75.4633C63.465 74.0305 69.7734 35.3778 70.3933 33.058C70.7579 31.6251 71.5966 29.2371 72.253 27.7701L73.4563 25.075L73.748 26.4396C73.8939 27.1902 74.0033 29.4076 74.0397 31.3863ZM31.0117 40.2222C33.8924 42.9514 38.7422 48.9557 59.381 75.4633C73.0552 93.0668 84.2862 107.6 84.3227 107.805C84.4686 108.351 81.4055 110.397 81.0044 109.988C79.2541 108.18 30.2095 44.6572 29.152 42.815C28.3498 41.4504 27.2923 39.3693 26.8183 38.2435L25.9796 36.1625L26.7454 36.5719C27.1829 36.7766 29.1156 38.4141 31.0117 40.2222ZM81.6973 41.8256C82.8277 42.9514 84.1039 44.3843 84.5415 45.0666C86.62 48.2734 87.8962 54.2095 87.8962 60.7596C87.8962 66.5251 88.5526 73.007 89.3548 75.4633C90.5217 78.9772 92.4907 81.6723 97.304 86.2779C102.409 91.1564 103.503 92.7939 104.962 97.8771C105.727 100.64 105.873 101.937 105.91 106.099C105.946 111.898 105.472 113.672 103.175 116.129C101.862 117.493 98.5074 120.086 97.9969 120.086C97.8875 120.086 95.7725 117.528 93.3294 114.389L88.8808 108.692L90.0841 107.839C92.8918 105.86 93.4753 105.246 93.22 104.495C92.7095 103.029 91.5427 103.199 88.9537 105.11C88.2244 105.655 87.4586 106.099 87.2399 106.099C87.0211 106.099 82.9371 101.05 78.0873 94.875L69.3358 83.6169L72.7635 62.0219C74.6596 50.1498 76.3005 39.8469 76.4464 39.1646L76.6652 37.8682L78.1602 38.8576C78.9989 39.4034 80.6033 40.7339 81.6973 41.8256ZM45.8527 69.6296C56.4639 83.2075 58.7247 86.2779 58.5788 86.9943C58.4694 87.4719 57.4484 93.6809 56.318 100.811C55.1876 107.941 54.2396 113.809 54.2031 113.843C54.1666 113.877 52.9633 113.741 51.5047 113.536C48.697 113.161 47.7853 113.4 47.7853 114.628C47.7853 115.549 48.5146 115.924 51.0307 116.299C52.3069 116.504 53.4373 116.743 53.5467 116.845C53.9478 117.186 51.8694 129.024 51.3589 129.366C50.739 129.775 47.0196 129.434 45.5246 128.854C43.8472 128.206 42.0604 126.398 41.3676 124.624C40.4195 122.304 40.8571 116.606 42.6439 108.487C45.3422 96.3078 45.7069 92.6575 44.7588 89.1436C43.8837 86.0732 41.9875 83.6851 35.1687 77.1009C26.9642 69.1861 26.089 67.7874 26.089 62.943C26.1255 59.4291 26.9277 57.314 28.9332 55.3012C30.246 54.0048 32.1056 52.8449 32.6161 52.9813C32.8349 53.0496 38.7786 60.5208 45.8527 69.6296ZM63.0639 91.6681C63.9026 92.7598 64.559 94.0221 64.559 94.4997C64.5225 95.6937 61.4595 114.559 61.2407 114.764C61.0584 114.935 57.7037 114.457 57.4484 114.218C57.1567 113.98 61.0219 89.7235 61.3501 89.7235C61.4595 89.7235 62.2617 90.6105 63.0639 91.6681ZM73.4928 105.007C76.4464 108.828 78.7436 112.069 78.5613 112.206C78.379 112.342 77.358 113.024 76.337 113.741C74.4044 115.003 74.0033 115.822 74.8419 116.606C75.5712 117.289 76.3735 117.084 78.5978 115.617C80.2387 114.491 80.7492 114.287 81.0044 114.662C81.1503 114.935 83.0829 117.425 85.3072 120.257L89.3183 125.34L88.0785 126.602C85.7813 128.99 85.2708 130.457 84.4321 137.007C84.1404 139.464 83.6299 142.159 83.3382 142.978C82.0984 146.219 78.0144 148.572 74.9513 147.754C71.5602 146.901 67.0021 142.978 63.2463 137.69L61.2043 134.824L62.517 126.534C63.2463 121.997 63.9026 118.21 63.9756 118.142C64.012 118.073 64.9601 118.176 66.0176 118.38C68.7889 118.892 69.5911 118.824 70.0286 118.039C70.685 116.913 69.9193 116.095 67.9502 115.856C67.0021 115.719 65.7623 115.549 65.2518 115.446L64.3037 115.276L65.3247 108.896C65.9082 105.382 66.5645 101.323 66.7833 99.8558C67.1115 97.7065 67.2938 97.263 67.6585 97.6383C67.8772 97.8771 70.5027 101.186 73.4928 105.007ZM93.6941 119.574L100.622 128.444L98.9085 129.536C97.5958 130.457 97.1582 130.594 96.7935 130.253C96.0642 129.468 83.484 113.195 83.3017 112.785C83.1558 112.342 85.7083 110.5 86.3282 110.636C86.5835 110.67 89.9018 114.696 93.6941 119.574ZM59.5634 117.528L60.949 117.732L60.6938 119.336C60.5479 120.223 59.7457 125.169 58.9435 130.321L57.4484 139.702L55.6252 139.6C54.6042 139.532 53.6926 139.361 53.5467 139.225C53.2915 139.02 56.2816 118.722 56.7556 117.425C56.8285 117.186 57.1932 117.05 57.5213 117.118C57.886 117.22 58.7976 117.391 59.5634 117.528Z"/>
</mask>
<path d="M73.5292 19.5142C72.18 20.2306 68.0596 29.5441 67.1115 34.0473L66.6739 36.0601L64.7778 36.606C62.0429 37.4248 59.4175 37.3565 58.1777 36.4695C57.5943 35.9919 56.1722 33.7744 54.5313 30.5676C50.9213 23.5739 49.0251 21.834 44.9411 21.834C42.2792 21.834 39.7267 23.1645 37.94 25.4844C36.2626 27.6678 35.3145 29.9194 34.0747 34.4226C33.6007 36.1966 33.1266 37.6977 33.0537 37.7659C32.9808 37.8683 32.0327 37.1859 31.0117 36.3331C27.9122 33.7403 23.8282 31.0452 23.026 31.0452C21.458 31.0452 21.458 32.1028 22.9895 36.3331C24.7034 40.9727 26.636 44.6572 28.9697 47.864C29.8813 49.1263 30.6471 50.2862 30.6471 50.4568C30.6471 50.6274 30.3189 50.9003 29.9178 51.0026C28.7145 51.3779 25.6879 54.3801 24.7034 56.1541C22.552 60.2138 22.4061 65.1264 24.3752 69.0497C25.9432 72.1541 26.8912 73.2458 33.9289 80.0007C41.6593 87.3696 42.1698 88.2225 42.0969 93.6468C42.0604 96.7513 41.6958 98.9347 40.1278 106.099C37.867 116.402 37.393 121.928 38.4505 125.34C39.3621 128.24 42.024 130.696 45.4152 131.651C46.7643 132.061 48.624 132.368 49.5721 132.368H51.3224L50.666 136.496C50.0097 140.862 50.0461 141.442 50.9942 141.715C52.3434 142.125 58.7976 142.875 59.2716 142.705C59.8186 142.534 59.9645 142.193 60.3656 140.282L60.6208 139.157L62.4805 141.476C66.6375 146.696 71.3778 150.108 75.2066 150.619C77.358 150.926 80.2751 150.142 82.3901 148.743C85.4531 146.628 86.6929 143.694 87.5316 136.291C88.0056 132.163 88.662 130.15 90.0111 128.649L90.9957 127.523L93.3659 130.628C94.6786 132.334 96.0278 133.801 96.3924 133.937C97.0852 134.142 101.096 131.788 103.284 129.911C104.524 128.82 104.488 128.717 101.716 125.169C100.732 123.907 99.9295 122.747 99.9295 122.611C99.9295 122.44 100.95 121.587 102.19 120.768C104.889 118.926 107.368 115.89 108.17 113.502C108.973 111.046 109.228 105.075 108.717 101.664C108.134 98.1159 106.785 93.6468 105.472 91.1223C104.779 89.7918 103.029 87.779 99.5648 84.4357C91.9438 77.0326 91.4333 75.7363 90.8498 61.749C90.4487 51.7873 89.7194 48.1028 87.3128 44.0772C85.7448 41.4504 81.6608 37.5271 78.853 35.9919L76.9569 34.9685V31.3863C76.9569 28.2136 76.2276 22.0729 75.6442 20.3671C75.3524 19.5142 74.3314 19.1048 73.5292 19.5142ZM47.0925 25.075C48.5876 25.8255 49.9003 27.6678 51.7964 31.591C53.9114 36.0943 55.6617 38.5164 57.339 39.3011C58.8341 40.0175 62.444 40.1881 64.5225 39.6081C65.2153 39.4034 65.8717 39.3011 65.9446 39.4034C66.054 39.5058 61.8242 67.1733 61.0219 71.233C60.8396 72.1883 60.7302 72.2906 60.3291 71.9153C60.0739 71.6765 54.4219 64.5123 47.7853 55.9835L35.7156 40.461L36.4814 36.913C38.5234 27.2925 42.498 22.8916 47.0925 25.075ZM74.0397 31.3863C74.0762 34.252 73.3469 39.4034 70.5027 57.5528C68.5336 70.0049 66.8562 80.1712 66.7468 80.1712C66.3457 80.1371 63.465 76.0433 63.465 75.4633C63.465 74.0305 69.7734 35.3778 70.3933 33.058C70.7579 31.6251 71.5966 29.2371 72.253 27.7701L73.4563 25.075L73.748 26.4396C73.8939 27.1902 74.0033 29.4076 74.0397 31.3863ZM31.0117 40.2222C33.8924 42.9514 38.7422 48.9557 59.381 75.4633C73.0552 93.0668 84.2862 107.6 84.3227 107.805C84.4686 108.351 81.4055 110.397 81.0044 109.988C79.2541 108.18 30.2095 44.6572 29.152 42.815C28.3498 41.4504 27.2923 39.3693 26.8183 38.2435L25.9796 36.1625L26.7454 36.5719C27.1829 36.7766 29.1156 38.4141 31.0117 40.2222ZM81.6973 41.8256C82.8277 42.9514 84.1039 44.3843 84.5415 45.0666C86.62 48.2734 87.8962 54.2095 87.8962 60.7596C87.8962 66.5251 88.5526 73.007 89.3548 75.4633C90.5217 78.9772 92.4907 81.6723 97.304 86.2779C102.409 91.1564 103.503 92.7939 104.962 97.8771C105.727 100.64 105.873 101.937 105.91 106.099C105.946 111.898 105.472 113.672 103.175 116.129C101.862 117.493 98.5074 120.086 97.9969 120.086C97.8875 120.086 95.7725 117.528 93.3294 114.389L88.8808 108.692L90.0841 107.839C92.8918 105.86 93.4753 105.246 93.22 104.495C92.7095 103.029 91.5427 103.199 88.9537 105.11C88.2244 105.655 87.4586 106.099 87.2399 106.099C87.0211 106.099 82.9371 101.05 78.0873 94.875L69.3358 83.6169L72.7635 62.0219C74.6596 50.1498 76.3005 39.8469 76.4464 39.1646L76.6652 37.8682L78.1602 38.8576C78.9989 39.4034 80.6033 40.7339 81.6973 41.8256ZM45.8527 69.6296C56.4639 83.2075 58.7247 86.2779 58.5788 86.9943C58.4694 87.4719 57.4484 93.6809 56.318 100.811C55.1876 107.941 54.2396 113.809 54.2031 113.843C54.1666 113.877 52.9633 113.741 51.5047 113.536C48.697 113.161 47.7853 113.4 47.7853 114.628C47.7853 115.549 48.5146 115.924 51.0307 116.299C52.3069 116.504 53.4373 116.743 53.5467 116.845C53.9478 117.186 51.8694 129.024 51.3589 129.366C50.739 129.775 47.0196 129.434 45.5246 128.854C43.8472 128.206 42.0604 126.398 41.3676 124.624C40.4195 122.304 40.8571 116.606 42.6439 108.487C45.3422 96.3078 45.7069 92.6575 44.7588 89.1436C43.8837 86.0732 41.9875 83.6851 35.1687 77.1009C26.9642 69.1861 26.089 67.7874 26.089 62.943C26.1255 59.4291 26.9277 57.314 28.9332 55.3012C30.246 54.0048 32.1056 52.8449 32.6161 52.9813C32.8349 53.0496 38.7786 60.5208 45.8527 69.6296ZM63.0639 91.6681C63.9026 92.7598 64.559 94.0221 64.559 94.4997C64.5225 95.6937 61.4595 114.559 61.2407 114.764C61.0584 114.935 57.7037 114.457 57.4484 114.218C57.1567 113.98 61.0219 89.7235 61.3501 89.7235C61.4595 89.7235 62.2617 90.6105 63.0639 91.6681ZM73.4928 105.007C76.4464 108.828 78.7436 112.069 78.5613 112.206C78.379 112.342 77.358 113.024 76.337 113.741C74.4044 115.003 74.0033 115.822 74.8419 116.606C75.5712 117.289 76.3735 117.084 78.5978 115.617C80.2387 114.491 80.7492 114.287 81.0044 114.662C81.1503 114.935 83.0829 117.425 85.3072 120.257L89.3183 125.34L88.0785 126.602C85.7813 128.99 85.2708 130.457 84.4321 137.007C84.1404 139.464 83.6299 142.159 83.3382 142.978C82.0984 146.219 78.0144 148.572 74.9513 147.754C71.5602 146.901 67.0021 142.978 63.2463 137.69L61.2043 134.824L62.517 126.534C63.2463 121.997 63.9026 118.21 63.9756 118.142C64.012 118.073 64.9601 118.176 66.0176 118.38C68.7889 118.892 69.5911 118.824 70.0286 118.039C70.685 116.913 69.9193 116.095 67.9502 115.856C67.0021 115.719 65.7623 115.549 65.2518 115.446L64.3037 115.276L65.3247 108.896C65.9082 105.382 66.5645 101.323 66.7833 99.8558C67.1115 97.7065 67.2938 97.263 67.6585 97.6383C67.8772 97.8771 70.5027 101.186 73.4928 105.007ZM93.6941 119.574L100.622 128.444L98.9085 129.536C97.5958 130.457 97.1582 130.594 96.7935 130.253C96.0642 129.468 83.484 113.195 83.3017 112.785C83.1558 112.342 85.7083 110.5 86.3282 110.636C86.5835 110.67 89.9018 114.696 93.6941 119.574ZM59.5634 117.528L60.949 117.732L60.6938 119.336C60.5479 120.223 59.7457 125.169 58.9435 130.321L57.4484 139.702L55.6252 139.6C54.6042 139.532 53.6926 139.361 53.5467 139.225C53.2915 139.02 56.2816 118.722 56.7556 117.425C56.8285 117.186 57.1932 117.05 57.5213 117.118C57.886 117.22 58.7976 117.391 59.5634 117.528Z" fill="white" stroke="#2A2C47" stroke-width="1.4" mask="url(#path-2-inside-2_101_104)"/>
<path d="M45.0101 37.0192L45.0101 37.0193L45.0063 37.0231C44.795 37.236 44.7113 37.3878 44.6831 37.5459C44.6527 37.7166 44.6772 37.9484 44.7994 38.3411C44.8794 38.5825 44.9482 38.8047 44.9705 38.9989C44.9948 39.2098 44.9688 39.4245 44.8257 39.6192C44.6972 39.7941 44.5023 39.9119 44.2938 40.0114C44.0806 40.1132 43.8012 40.2187 43.4593 40.345C43.1512 40.4637 42.9228 40.5582 42.7509 40.6456C42.5774 40.7338 42.4858 40.8031 42.4343 40.8607C42.359 40.9449 42.3166 41.0564 42.3702 41.4741L42.3704 41.4758C42.3982 41.7015 42.422 41.8311 42.4546 41.9161C42.4795 41.9809 42.5006 41.9983 42.5313 42.0143C42.5834 42.0415 42.6876 42.0711 42.9077 42.0857C43.1227 42.1 43.4089 42.0984 43.8022 42.0898L43.8022 42.0897H43.8098C44.1915 42.0897 44.5048 42.0938 44.7596 42.1167C45.0129 42.1395 45.2393 42.183 45.4337 42.2801C45.8548 42.4901 46.0063 42.8907 46.1489 43.3571C46.5083 44.4423 47.1335 44.7442 47.5065 44.6904C47.855 44.64 48.3229 44.2138 48.2376 43.0801L48.2375 43.0801L48.2372 43.0735C48.2191 42.7516 48.2083 42.4802 48.2251 42.2563C48.2421 42.0292 48.2893 41.8158 48.4131 41.6284C48.5381 41.4392 48.7151 41.3158 48.9155 41.2183C49.1109 41.1232 49.3573 41.0396 49.6463 40.9466L49.6463 40.9466L49.6493 40.9457C50.3411 40.7299 50.7002 40.4808 50.8452 40.2441C50.9663 40.0464 50.9834 39.7751 50.7283 39.3424L50.7282 39.3425L50.7251 39.337C50.6507 39.2056 50.5933 39.1308 50.54 39.0833C50.4929 39.0413 50.4376 39.0104 50.3474 38.9903C50.1346 38.9429 49.7817 38.9631 49.0753 39.0674L49.0754 39.0675L49.067 39.0685C48.7204 39.1112 48.4368 39.1424 48.2088 39.1553C47.9867 39.168 47.7863 39.1657 47.6196 39.1252C47.4366 39.0807 47.2695 38.983 47.1683 38.7976C47.0816 38.6385 47.0698 38.458 47.0698 38.3118C47.0698 38.013 46.875 37.55 46.5692 37.139C46.4216 36.9406 46.2623 36.7742 46.1147 36.661C45.9575 36.5406 45.8557 36.5125 45.8153 36.5125C45.7837 36.5125 45.6684 36.5408 45.4894 36.6445C45.3246 36.7399 45.1503 36.8735 45.0101 37.0192Z" fill="white" stroke="#2A2C47" stroke-width="0.7"/>
<path d="M79.2008 80.3382L79.2016 80.3458L79.2021 80.3535C79.2201 80.6411 79.2313 80.8893 79.2141 81.0968C79.1964 81.3098 79.1469 81.5125 79.0193 81.6916C78.8931 81.8687 78.7171 81.985 78.5207 82.0782C78.3271 82.1699 78.0826 82.253 77.793 82.3462L77.7931 82.3464L77.7805 82.35C77.2264 82.5055 77.0048 82.6215 76.8989 82.7404C76.8105 82.8396 76.7596 82.9916 76.7596 83.4117C76.7596 83.67 76.7635 83.8178 76.7841 83.9169C76.7991 83.9883 76.8123 83.9881 76.814 83.988C76.8141 83.988 76.8142 83.988 76.8142 83.988C76.8468 84.0071 76.9358 84.0371 77.1683 84.0506C77.3913 84.0635 77.6935 84.0597 78.1163 84.0511L78.1163 84.0511H78.1235C78.5143 84.0511 78.8317 84.0551 79.0877 84.0774C79.3417 84.0995 79.5669 84.1417 79.7592 84.2362C80.1788 84.4425 80.3218 84.8399 80.4627 85.2847L80.4627 85.2847L80.4648 85.2916C80.7892 86.3939 81.4084 86.6978 81.7769 86.6471C82.1252 86.5992 82.6 86.1727 82.5148 85.0414L82.5148 85.0414L82.5144 85.0348C82.4963 84.7124 82.4857 84.443 82.4997 84.224C82.5138 84.0058 82.554 83.7952 82.6695 83.6151C82.7908 83.4259 82.9654 83.3155 83.1564 83.2405C83.3385 83.169 83.5637 83.1191 83.816 83.0685L83.8172 83.0683C84.4469 82.9443 84.8505 82.6677 85.0442 82.3656C85.2279 82.0793 85.2537 81.7249 85.0401 81.3349C84.906 81.1133 84.7935 81.0169 84.6148 80.9612C84.3987 80.8938 84.0587 80.8778 83.4396 80.9289L83.4388 80.929C83.1164 80.9549 82.8472 80.9688 82.6241 80.9642C82.4038 80.9596 82.205 80.9368 82.0343 80.8753C81.8521 80.8098 81.706 80.7016 81.6011 80.543C81.5046 80.3972 81.4574 80.2299 81.4268 80.0696C81.3518 79.7239 81.1103 79.3109 80.8056 78.9789C80.6552 78.8151 80.4998 78.6825 80.358 78.5934C80.2099 78.5002 80.1077 78.4738 80.0561 78.4738C80.0179 78.4738 79.9171 78.4989 79.7679 78.5803C79.6392 78.6505 79.509 78.7438 79.4062 78.8363C79.3867 78.8663 79.3581 78.9223 79.3273 79.0117C79.2915 79.1156 79.2593 79.2455 79.2343 79.3932C79.1843 79.6897 79.1681 80.0326 79.2008 80.3382Z" fill="white" stroke="#2A2C47" stroke-width="0.7"/>
<path d="M60.4567 25.0545L60.4569 25.0547L60.4455 25.0621C60.0435 25.3214 59.8019 25.8414 59.7897 26.4467C59.7777 27.0482 59.9964 27.6623 60.4219 28.0604C61.7478 29.3009 63.8439 28.3765 63.8439 26.4738C63.8439 25.3889 62.9982 24.5721 61.8237 24.5721C61.6779 24.5721 61.4368 24.6188 61.1665 24.7111C60.9001 24.8021 60.6407 24.9254 60.4567 25.0545Z" fill="white" stroke="#2A2C47" stroke-width="0.7"/>
<path d="M96.9519 70.0242L96.9519 70.0242L96.951 70.0253C96.4938 70.5682 96.3184 70.9614 96.3084 71.2861C96.2987 71.599 96.4411 71.9316 96.8327 72.3617L96.8327 72.3617L96.8359 72.3653C97.3182 72.9098 97.8496 73.1779 98.351 73.2164C98.8484 73.2546 99.3639 73.0708 99.8311 72.6187L99.8309 72.6186L99.8396 72.6108C100.353 72.1463 100.598 71.6381 100.628 71.1722C100.657 70.7116 100.478 70.2475 100.054 69.8508C99.142 68.9973 97.7333 69.0884 96.9519 70.0242Z" fill="white" stroke="#2A2C47" stroke-width="0.7"/>
<path d="M29.0187 88.4872L29.0188 88.4872L29.0204 88.4953C29.1093 88.9444 29.16 89.3292 29.0659 89.6312C28.9517 89.9976 28.662 90.1627 28.3437 90.262L28.3437 90.2621L28.3363 90.2642C27.6234 90.4695 27.2544 90.639 27.0541 90.8296C26.884 90.9914 26.8027 91.2018 26.8027 91.6336C26.8027 91.8842 26.8067 92.0232 26.8269 92.1145C26.8345 92.1489 26.8418 92.1624 26.8436 92.1654C26.8446 92.1661 26.8467 92.1675 26.8502 92.1693C26.8855 92.1882 26.9798 92.2158 27.2187 92.2242C27.4476 92.2321 27.7574 92.2222 28.1891 92.205L28.1891 92.205L28.1944 92.2049C28.8742 92.1881 29.3642 92.2002 29.6854 92.3022C29.8592 92.3573 30.0216 92.4497 30.1323 92.6107C30.2409 92.7686 30.2668 92.9452 30.2668 93.1006C30.2668 93.2278 30.3103 93.4043 30.4047 93.612C30.4971 93.8153 30.6286 94.027 30.7797 94.2187C30.9314 94.4112 31.095 94.5735 31.2465 94.6843C31.4075 94.8021 31.5134 94.8316 31.5577 94.8316C31.8989 94.8316 32.1958 94.6569 32.3948 94.3511C32.5958 94.0421 32.6939 93.5982 32.5995 93.0972L32.5992 93.0973L32.5971 93.0834C32.5608 92.8366 32.5334 92.6136 32.5382 92.4182C32.5432 92.2154 32.583 92.019 32.6984 91.8379C32.8112 91.6608 32.9749 91.5324 33.1641 91.4239C33.3508 91.3167 33.5869 91.2155 33.8697 91.1044C34.354 90.9028 34.5776 90.7527 34.6947 90.601C34.8007 90.4637 34.8542 90.2786 34.8542 89.8938C34.8542 89.6353 34.8504 89.4877 34.8297 89.3894C34.8207 89.3463 34.8116 89.3309 34.8099 89.3283C34.8098 89.3281 34.8097 89.328 34.8097 89.3279C34.809 89.3273 34.8073 89.3261 34.8041 89.3243C34.7732 89.3068 34.6854 89.2784 34.4525 89.2696C34.2296 89.2612 33.9274 89.271 33.5046 89.2882L33.5046 89.2883L33.4988 89.2884C32.8008 89.3052 32.3026 89.293 31.9777 89.1916C31.8025 89.137 31.6383 89.0453 31.5262 88.884C31.416 88.7256 31.3901 88.548 31.3901 88.3927C31.3901 88.2655 31.3466 88.089 31.2522 87.8813C31.1598 87.678 31.0283 87.4663 30.8772 87.2746C30.7255 87.0821 30.562 86.9198 30.4104 86.809C30.2494 86.6912 30.1435 86.6617 30.0992 86.6617C30.0531 86.6617 29.9203 86.6924 29.7333 86.7839C29.5578 86.8697 29.3785 86.9876 29.2444 87.1131C29.0955 87.2524 29.0057 87.4092 28.9657 87.6118C28.9239 87.8239 28.9333 88.1038 29.0187 88.4872Z" fill="white" stroke="#2A2C47" stroke-width="0.7"/>
<path d="M111.322 132.101L111.322 132.101L111.323 132.103C111.368 132.366 111.402 132.595 111.406 132.788C111.409 132.984 111.382 133.184 111.268 133.362C111.154 133.541 110.983 133.648 110.805 133.726C110.63 133.803 110.41 133.866 110.157 133.934C109.559 134.093 109.159 134.327 108.924 134.561C108.689 134.794 108.632 135.009 108.653 135.163C108.675 135.315 108.784 135.496 109.066 135.639C109.351 135.784 109.794 135.879 110.408 135.839L110.408 135.839L110.414 135.839C110.758 135.822 111.044 135.812 111.278 135.827C111.514 135.843 111.731 135.885 111.923 135.996C112.121 136.111 112.255 136.276 112.362 136.469C112.466 136.655 112.556 136.889 112.656 137.159L112.656 137.159L112.658 137.165C112.855 137.736 113.167 138.078 113.482 138.219C113.782 138.353 114.142 138.332 114.529 138.054L114.536 138.049L114.543 138.044C114.72 137.929 114.801 137.82 114.84 137.655C114.886 137.461 114.88 137.163 114.79 136.659L114.79 136.659L114.79 136.656C114.736 136.336 114.693 136.068 114.682 135.851C114.67 135.635 114.685 135.417 114.791 135.223C114.901 135.021 115.078 134.901 115.267 134.816C115.449 134.733 115.683 134.665 115.95 134.59C116.749 134.357 117.159 134.058 117.298 133.803C117.36 133.69 117.373 133.578 117.339 133.455C117.303 133.323 117.207 133.157 117.012 132.965C116.719 132.709 116.541 132.607 116.353 132.57C116.152 132.531 115.89 132.555 115.406 132.672C115.138 132.747 114.911 132.808 114.726 132.838C114.545 132.867 114.345 132.879 114.16 132.801C113.958 132.716 113.843 132.555 113.769 132.394C113.699 132.243 113.647 132.051 113.594 131.845C113.525 131.605 113.431 131.34 113.329 131.11C113.222 130.869 113.122 130.7 113.053 130.625L113.047 130.618L113.041 130.61C112.982 130.538 112.867 130.463 112.687 130.409C112.512 130.356 112.302 130.333 112.092 130.342C111.88 130.351 111.685 130.393 111.537 130.456C111.397 130.516 111.329 130.581 111.301 130.628C111.271 130.729 111.246 130.934 111.246 131.212C111.246 131.496 111.272 131.816 111.322 132.101Z" fill="white" stroke="#2A2C47" stroke-width="0.7"/>
<path d="M102.217 138.551C101.605 138.559 101.076 138.742 100.802 139.023C100.48 139.367 100.307 139.909 100.315 140.461C100.323 141.017 100.513 141.5 100.81 141.754C101.183 142.06 101.775 142.226 102.381 142.218C102.993 142.21 103.522 142.027 103.796 141.746C104.118 141.402 104.291 140.861 104.283 140.309C104.275 139.752 104.085 139.27 103.788 139.016C103.415 138.71 102.823 138.543 102.217 138.551Z" fill="white" stroke="#2A2C47" stroke-width="0.7"/>
<path d="M46.8884 151.571L46.8861 151.562C46.8199 151.283 46.7862 150.969 46.7862 150.691C46.7862 150.399 46.8239 150.201 46.8617 150.121C46.8881 150.066 46.966 149.978 47.1334 149.901C47.2959 149.827 47.5186 149.775 47.7854 149.775C48.2102 149.775 48.3709 149.829 48.4788 149.921C48.6076 150.031 48.7284 150.249 48.9137 150.769C48.9139 150.77 48.9141 150.77 48.9142 150.771L49.2439 150.653C49.6451 151.813 49.7909 151.881 50.8848 151.711L46.8884 151.571ZM46.8884 151.571L46.8902 151.581C46.9354 151.835 46.9702 152.059 46.9736 152.246C46.977 152.436 46.9504 152.637 46.8272 152.812C46.704 152.987 46.5234 153.08 46.3442 153.14C46.1681 153.199 45.948 153.241 45.6964 153.283C45.0986 153.401 44.7255 153.632 44.5206 153.872C44.3182 154.108 44.2677 154.363 44.3201 154.586C44.4213 155.016 45.0056 155.546 46.2371 155.356L46.2371 155.356L46.2426 155.355C46.5488 155.313 46.8086 155.28 47.0224 155.276C47.2368 155.272 47.4497 155.295 47.6404 155.4C47.8375 155.509 47.9622 155.679 48.0556 155.869C48.1458 156.052 48.2213 156.285 48.3026 156.556C48.4482 157.032 48.5596 157.212 48.6757 157.299C48.7883 157.385 48.9712 157.433 49.4263 157.433C49.7004 157.433 49.866 157.43 49.9798 157.409C50.0318 157.4 50.0556 157.389 50.0649 157.384C50.0705 157.381 50.0715 157.38 50.0742 157.376C50.0882 157.355 50.1192 157.283 50.1334 157.069C50.1469 156.864 50.143 156.584 50.1338 156.188L50.1337 156.188V156.18C50.1337 155.8 50.1357 155.49 50.1593 155.245C50.1826 155.002 50.2304 154.774 50.3558 154.584C50.4895 154.382 50.6796 154.269 50.8902 154.195C51.09 154.124 51.3407 154.077 51.6266 154.027L51.6266 154.027L51.6352 154.026C52.0725 153.96 52.3097 153.869 52.4564 153.754C52.5921 153.649 52.6904 153.491 52.771 153.19L52.771 153.19L52.7724 153.185C52.8408 152.943 52.8373 152.754 52.7951 152.611C52.754 152.471 52.6696 152.353 52.5333 152.257C52.2478 152.055 51.7179 151.943 50.937 152.057L46.8884 151.571Z" fill="white" stroke="#2A2C47" stroke-width="0.7"/>
<path d="M119.273 83.4616L119.273 83.4616L119.276 83.4638C121.851 85.8896 125.286 85.9668 127.869 84.595C130.45 83.2245 132.141 80.4336 131.277 77.1203L131.277 77.1179C130.967 75.8934 130.495 75.0976 129.408 74.0807C127.247 72.0587 124.648 71.5342 121.736 72.4855C120.992 72.7392 119.762 73.5244 119.064 74.2098C117.685 75.5989 117.027 77.2488 117.061 78.8711C117.095 80.4939 117.823 82.1207 119.273 83.4616ZM128.789 77.0035L128.79 77.0061C129.755 78.8491 129.106 80.7975 127.78 82.0381C126.455 83.278 124.401 83.8668 122.464 82.9793C121.619 82.5933 120.829 81.9134 120.25 81.1704C119.678 80.4361 119.269 79.5843 119.269 78.8401C119.269 78.0647 119.606 77.2122 120.104 76.474C120.603 75.7323 121.292 75.0647 122.047 74.6742L122.047 74.6741L122.052 74.6719C122.905 74.2464 123.684 74.0269 124.464 74.0553C125.243 74.0838 125.986 74.3589 126.767 74.8575C127.151 75.0854 127.558 75.442 127.911 75.8211C128.267 76.2025 128.588 76.6278 128.789 77.0035Z" fill="white" stroke="#2A2C47" stroke-width="0.7"/>
</svg>
