<svg width="30" height="30" viewBox="0 0 30 30" fill="none" xmlns="http://www.w3.org/2000/svg">
<path d="M27.6902 0.00257756C27.284 0.0221179 26.9054 0.151127 26.5722 0.297974C26.26 0.434862 25.0673 0.99252 23.1887 1.87076C21.3085 2.74977 18.8188 3.91501 16.163 5.16005C10.8514 7.65012 4.8798 10.4531 1.82112 11.8876C1.7061 11.9416 1.30478 12.0813 0.878823 12.4438C0.452869 12.8064 0 13.5575 0 14.3945C0 15.0695 0.295057 15.74 0.666441 16.1403C1.03782 16.5406 1.4308 16.7384 1.76741 16.8881C2.98875 17.4314 6.77667 19.1212 7.49197 19.4402C7.7437 20.2809 9.11475 24.853 9.4327 25.9736C9.6423 26.713 9.84181 27.1761 10.1016 27.5437C10.2315 27.7275 10.3824 27.8885 10.5654 28.0147C10.6385 28.0652 10.7187 28.104 10.7998 28.1398L10.8046 28.1425C10.8233 28.1506 10.8394 28.1645 10.8583 28.1717C10.8941 28.1854 10.918 28.187 10.9658 28.1983C11.1561 28.2654 11.3484 28.3075 11.5199 28.3075C12.2513 28.3075 12.699 27.8684 12.699 27.8684L12.7258 27.8471L16.4877 24.2996L21.0503 29.0047C21.1145 29.1037 21.7136 30 23.0349 30C23.8195 30 24.4418 29.5708 24.8414 29.1138C25.241 28.6568 25.4899 28.1766 25.5957 27.573V27.5703C25.6947 26.9998 29.8995 3.4675 29.8995 3.4675L29.8922 3.49944C30.0153 2.88695 30.0475 2.31655 29.9117 1.75367C29.7759 1.19079 29.418 0.651854 28.9743 0.361844C28.5306 0.0718982 28.0965 -0.0169629 27.6902 0.00257756ZM27.4559 2.8501C27.4499 2.88986 27.4604 2.86987 27.451 2.91663L27.4486 2.9326L27.4461 2.94856C27.4461 2.94856 23.2934 26.1799 23.1399 27.0647C23.1511 26.9978 23.0998 27.1307 23.0471 27.211C22.9727 27.1551 22.8201 27.0833 22.8201 27.0833L22.7957 27.054L16.5634 20.6271L12.157 24.7787L13.468 19.057C13.468 19.057 21.6624 9.80986 22.1561 9.27165C22.5536 8.84109 22.637 8.69099 22.637 8.54247C22.637 8.34354 22.5419 8.19918 22.3294 8.19918C22.1382 8.19918 21.881 8.40186 21.7435 8.49723C19.9523 9.74199 12.0886 14.7383 8.56364 16.9733C8.00346 16.7233 4.11169 14.9867 2.7927 14.3998C2.80269 14.3951 2.7994 14.3968 2.80979 14.3919C5.86928 12.9569 11.8384 10.154 17.1493 7.66427C19.8047 6.41941 22.2962 5.25328 24.175 4.37498C26.0248 3.51021 27.3101 2.91505 27.4559 2.8501Z" fill="white"/>
</svg>
